<?xml version="1.0" encoding="utf-8"?>
<!-- Generator: Adobe Illustrator 27.5.0, SVG Export Plug-In . SVG Version: 6.00 Build 0)  -->
<svg version="1.1" xmlns="http://www.w3.org/2000/svg" xmlns:xlink="http://www.w3.org/1999/xlink" x="0px" y="0px"
	 viewBox="0 0 500 500" style="enable-background:new 0 0 500 500;" xml:space="preserve">
<g id="BACKGROUND">
	<rect x="0" style="fill:#FEFEFE;" width="499.999" height="500"/>
</g>
<g id="DESIGNED_BY_FREEPIK">
	<g>
		<g>
			<g>
				<path style="fill:#606060;" d="M258.897,472.109h0.386v-0.486c0-0.509,0.062-0.911,0.192-1.211
					c0.128-0.299,0.347-0.516,0.654-0.653c0.306-0.135,0.727-0.204,1.26-0.204c0.95,0,1.42,0.229,1.42,0.697
					c0,0.149-0.049,0.278-0.15,0.384c-0.096,0.105-0.214,0.16-0.348,0.16c-0.062,0-0.174-0.011-0.33-0.037
					c-0.148-0.021-0.283-0.035-0.389-0.035c-0.292,0-0.479,0.088-0.566,0.259c-0.079,0.172-0.122,0.418-0.122,0.74v0.386h0.396
					c0.62,0,0.926,0.186,0.926,0.56c0,0.262-0.079,0.432-0.245,0.503c-0.164,0.071-0.39,0.107-0.681,0.107h-0.396v4.294
					c0,0.319-0.075,0.563-0.231,0.73c-0.151,0.17-0.346,0.254-0.589,0.254c-0.229,0-0.419-0.084-0.574-0.254
					c-0.153-0.167-0.228-0.411-0.228-0.73v-4.294h-0.446c-0.243,0-0.427-0.052-0.558-0.164c-0.131-0.107-0.197-0.25-0.197-0.424
					C258.082,472.302,258.354,472.109,258.897,472.109"/>
				<path style="fill:#606060;" d="M264.203,476.218v1.355c0,0.327-0.083,0.574-0.234,0.737c-0.154,0.166-0.349,0.247-0.586,0.247
					c-0.239,0-0.43-0.082-0.579-0.25c-0.148-0.165-0.225-0.41-0.225-0.734v-4.514c0-0.729,0.263-1.093,0.788-1.093
					c0.271,0,0.464,0.084,0.583,0.255c0.118,0.171,0.184,0.421,0.198,0.755c0.192-0.334,0.39-0.584,0.593-0.755
					c0.208-0.171,0.477-0.255,0.819-0.255c0.343,0,0.67,0.084,0.991,0.255c0.322,0.171,0.482,0.398,0.482,0.678
					c0,0.197-0.069,0.362-0.204,0.488c-0.137,0.131-0.284,0.195-0.441,0.195c-0.062,0-0.207-0.039-0.433-0.112
					c-0.228-0.071-0.43-0.108-0.602-0.108c-0.237,0-0.433,0.064-0.582,0.186c-0.151,0.128-0.269,0.311-0.353,0.554
					c-0.081,0.246-0.137,0.541-0.17,0.878C264.217,475.319,264.203,475.732,264.203,476.218"/>
				<path style="fill:#606060;" d="M271.653,475.66h-3.171c0.005,0.367,0.077,0.694,0.222,0.974
					c0.147,0.279,0.337,0.491,0.578,0.635c0.24,0.142,0.502,0.212,0.793,0.212c0.194,0,0.37-0.021,0.531-0.07
					c0.159-0.043,0.316-0.116,0.466-0.213c0.151-0.095,0.287-0.199,0.415-0.313c0.126-0.109,0.292-0.26,0.494-0.449
					c0.084-0.071,0.203-0.109,0.355-0.109c0.168,0,0.301,0.046,0.406,0.139c0.104,0.092,0.152,0.219,0.152,0.386
					c0,0.147-0.056,0.317-0.167,0.512c-0.117,0.198-0.289,0.385-0.523,0.566c-0.234,0.178-0.524,0.33-0.873,0.446
					c-0.35,0.119-0.754,0.179-1.207,0.179c-1.044,0-1.853-0.295-2.429-0.889c-0.577-0.595-0.87-1.401-0.87-2.418
					c0-0.479,0.073-0.924,0.217-1.334c0.14-0.411,0.349-0.76,0.624-1.055c0.272-0.294,0.606-0.518,1.008-0.674
					c0.399-0.156,0.842-0.234,1.33-0.234c0.632,0,1.176,0.134,1.629,0.404c0.452,0.264,0.796,0.61,1.018,1.034
					c0.226,0.425,0.339,0.855,0.339,1.296c0,0.405-0.118,0.669-0.351,0.791C272.405,475.6,272.077,475.66,271.653,475.66
					 M268.482,474.739h2.938c-0.039-0.553-0.186-0.969-0.446-1.241c-0.261-0.276-0.599-0.413-1.025-0.413
					c-0.403,0-0.736,0.137-0.995,0.418C268.695,473.782,268.536,474.193,268.482,474.739"/>
				<path style="fill:#606060;" d="M278.395,475.66h-3.171c0.004,0.367,0.078,0.694,0.222,0.974
					c0.145,0.279,0.337,0.491,0.576,0.635c0.239,0.142,0.503,0.212,0.795,0.212c0.192,0,0.371-0.021,0.528-0.07
					c0.162-0.043,0.316-0.116,0.469-0.213c0.151-0.095,0.287-0.199,0.415-0.313c0.125-0.109,0.29-0.26,0.493-0.449
					c0.084-0.071,0.204-0.109,0.355-0.109c0.168,0,0.302,0.046,0.406,0.139c0.103,0.092,0.15,0.219,0.15,0.386
					c0,0.147-0.054,0.317-0.171,0.512c-0.111,0.198-0.285,0.385-0.519,0.566c-0.231,0.178-0.525,0.33-0.872,0.446
					c-0.348,0.119-0.755,0.179-1.209,0.179c-1.042,0-1.849-0.295-2.429-0.889c-0.577-0.595-0.868-1.401-0.868-2.418
					c0-0.479,0.073-0.924,0.217-1.334c0.142-0.411,0.349-0.76,0.623-1.055c0.272-0.294,0.608-0.518,1.009-0.674
					c0.398-0.156,0.844-0.234,1.331-0.234c0.63,0,1.174,0.134,1.633,0.404c0.45,0.264,0.791,0.61,1.013,1.034
					c0.225,0.425,0.341,0.855,0.341,1.296c0,0.405-0.12,0.669-0.351,0.791C279.145,475.6,278.818,475.66,278.395,475.66
					 M275.224,474.739h2.938c-0.04-0.553-0.19-0.969-0.447-1.241c-0.263-0.276-0.601-0.413-1.027-0.413
					c-0.403,0-0.735,0.137-0.996,0.418C275.436,473.782,275.277,474.193,275.224,474.739"/>
				<path style="fill:#606060;" d="M281.945,472.878v0.194c0.304-0.375,0.621-0.651,0.953-0.828
					c0.324-0.178,0.699-0.267,1.114-0.267c0.497,0,0.96,0.13,1.379,0.386c0.419,0.259,0.749,0.635,0.993,1.129
					c0.244,0.497,0.366,1.081,0.366,1.758c0,0.497-0.07,0.957-0.21,1.376c-0.14,0.417-0.336,0.767-0.581,1.05
					c-0.246,0.281-0.535,0.501-0.868,0.654c-0.339,0.151-0.695,0.227-1.08,0.227c-0.461,0-0.853-0.093-1.166-0.28
					c-0.314-0.182-0.614-0.458-0.901-0.816v2.433c0,0.71-0.26,1.069-0.778,1.069c-0.306,0-0.505-0.092-0.607-0.275
					c-0.095-0.187-0.146-0.452-0.146-0.807v-6.996c0-0.309,0.066-0.537,0.2-0.692c0.134-0.15,0.32-0.228,0.553-0.228
					c0.231,0,0.416,0.078,0.56,0.234C281.874,472.358,281.945,472.581,281.945,472.878 M285.123,475.232
					c0-0.428-0.067-0.796-0.197-1.102c-0.131-0.308-0.312-0.542-0.541-0.705c-0.229-0.164-0.489-0.248-0.77-0.248
					c-0.446,0-0.824,0.178-1.13,0.527c-0.308,0.354-0.462,0.872-0.462,1.558c0,0.641,0.153,1.146,0.46,1.504
					c0.305,0.358,0.679,0.536,1.133,0.536c0.268,0,0.519-0.079,0.748-0.232c0.232-0.158,0.416-0.392,0.552-0.704
					C285.053,476.053,285.123,475.675,285.123,475.232"/>
				<path style="fill:#606060;" d="M288.382,471.211c-0.226,0-0.418-0.071-0.577-0.209c-0.162-0.139-0.242-0.333-0.242-0.585
					c0-0.23,0.082-0.419,0.248-0.569c0.164-0.147,0.354-0.222,0.571-0.222c0.212,0,0.397,0.066,0.559,0.2
					c0.162,0.137,0.244,0.334,0.244,0.591c0,0.25-0.079,0.444-0.236,0.585C288.79,471.14,288.602,471.211,288.382,471.211
					 M289.185,472.886v4.689c0,0.322-0.077,0.568-0.231,0.732c-0.156,0.168-0.35,0.25-0.588,0.25c-0.238,0-0.428-0.084-0.58-0.254
					c-0.146-0.173-0.222-0.416-0.222-0.729v-4.642c0-0.319,0.076-0.559,0.222-0.721c0.152-0.165,0.342-0.245,0.58-0.245
					c0.238,0,0.432,0.079,0.588,0.245C289.108,472.373,289.185,472.599,289.185,472.886"/>
				<path style="fill:#606060;" d="M294.41,477.817l-1.428-2.354l-0.88,0.83v1.291c0,0.312-0.083,0.551-0.248,0.718
					c-0.16,0.17-0.354,0.254-0.566,0.254c-0.249,0-0.447-0.082-0.588-0.25c-0.142-0.165-0.215-0.41-0.215-0.734v-6.915
					c0-0.358,0.071-0.632,0.207-0.821c0.139-0.19,0.341-0.283,0.596-0.283c0.25,0,0.445,0.086,0.593,0.257
					c0.146,0.169,0.221,0.421,0.221,0.751v3.933l1.823-1.914c0.227-0.235,0.395-0.4,0.517-0.486c0.118-0.087,0.262-0.13,0.431-0.13
					c0.204,0,0.371,0.065,0.51,0.193c0.132,0.129,0.2,0.291,0.2,0.483c0,0.237-0.221,0.555-0.659,0.951l-0.861,0.789l1.662,2.614
					c0.121,0.196,0.212,0.34,0.265,0.441c0.052,0.1,0.081,0.2,0.081,0.289c0,0.258-0.071,0.459-0.213,0.61
					c-0.14,0.148-0.327,0.221-0.554,0.221c-0.198,0-0.352-0.051-0.458-0.16C294.739,478.289,294.591,478.095,294.41,477.817"/>
				<path style="fill:#606060;" d="M297.932,478.557c-0.245,0-0.455-0.079-0.634-0.238c-0.178-0.156-0.268-0.378-0.268-0.665
					c0-0.241,0.086-0.449,0.256-0.622c0.172-0.174,0.38-0.262,0.63-0.262c0.248,0,0.46,0.087,0.639,0.258
					c0.175,0.172,0.264,0.383,0.264,0.626c0,0.283-0.089,0.505-0.264,0.662C298.376,478.478,298.169,478.557,297.932,478.557"/>
				<path style="fill:#606060;" d="M305.993,476.551c0,0.2-0.06,0.417-0.182,0.646c-0.12,0.231-0.305,0.449-0.554,0.656
					c-0.247,0.208-0.557,0.377-0.934,0.502c-0.375,0.126-0.8,0.192-1.269,0.192c-1.004,0-1.786-0.294-2.349-0.876
					c-0.56-0.585-0.841-1.368-0.841-2.35c0-0.667,0.128-1.254,0.387-1.765c0.255-0.509,0.628-0.905,1.113-1.184
					c0.487-0.28,1.072-0.419,1.746-0.419c0.421,0,0.805,0.061,1.158,0.184c0.35,0.122,0.645,0.282,0.891,0.474
					c0.242,0.197,0.428,0.402,0.556,0.62c0.129,0.22,0.192,0.425,0.192,0.617c0,0.192-0.071,0.357-0.214,0.492
					c-0.147,0.134-0.322,0.203-0.524,0.203c-0.137,0-0.248-0.035-0.338-0.104c-0.09-0.07-0.19-0.181-0.299-0.339
					c-0.198-0.299-0.404-0.526-0.622-0.674c-0.214-0.152-0.488-0.226-0.821-0.226c-0.476,0-0.865,0.186-1.159,0.561
					c-0.292,0.372-0.439,0.888-0.439,1.534c0,0.305,0.039,0.587,0.114,0.842c0.073,0.254,0.182,0.472,0.325,0.652
					c0.144,0.18,0.315,0.316,0.516,0.409c0.203,0.096,0.426,0.141,0.665,0.141c0.326,0,0.604-0.075,0.836-0.225
					c0.235-0.151,0.439-0.38,0.616-0.689c0.099-0.182,0.205-0.323,0.318-0.427c0.114-0.102,0.256-0.156,0.422-0.156
					c0.198,0,0.363,0.077,0.491,0.226C305.927,476.22,305.993,476.382,305.993,476.551"/>
				<path style="fill:#606060;" d="M312.987,475.263c0,0.481-0.076,0.928-0.222,1.337c-0.154,0.408-0.37,0.758-0.656,1.049
					c-0.284,0.293-0.626,0.518-1.02,0.675c-0.4,0.154-0.844,0.234-1.337,0.234c-0.491,0-0.933-0.08-1.326-0.239
					c-0.389-0.156-0.732-0.384-1.016-0.676c-0.288-0.298-0.505-0.646-0.657-1.048c-0.143-0.402-0.219-0.846-0.219-1.332
					c0-0.491,0.077-0.941,0.224-1.349c0.151-0.409,0.368-0.758,0.649-1.046c0.282-0.289,0.621-0.511,1.019-0.669
					c0.402-0.156,0.844-0.234,1.326-0.234c0.49,0,0.936,0.078,1.337,0.239c0.399,0.157,0.739,0.384,1.027,0.674
					c0.286,0.297,0.502,0.643,0.65,1.045C312.912,474.331,312.987,474.774,312.987,475.263 M311.36,475.263
					c0-0.662-0.146-1.176-0.436-1.543c-0.289-0.372-0.681-0.555-1.171-0.555c-0.317,0-0.597,0.082-0.839,0.246
					c-0.242,0.164-0.425,0.406-0.556,0.728c-0.131,0.321-0.197,0.696-0.197,1.124c0,0.424,0.064,0.792,0.194,1.108
					c0.13,0.319,0.314,0.561,0.554,0.729c0.241,0.167,0.522,0.253,0.845,0.253c0.49,0,0.882-0.185,1.171-0.557
					C311.214,476.426,311.36,475.914,311.36,475.263"/>
				<path style="fill:#606060;" d="M319.17,475.382v2.154c0,0.342-0.075,0.595-0.231,0.767c-0.156,0.17-0.357,0.255-0.611,0.255
					c-0.245,0-0.446-0.085-0.595-0.255c-0.154-0.173-0.233-0.425-0.233-0.767v-2.582c0-0.408-0.013-0.726-0.04-0.953
					c-0.029-0.221-0.105-0.41-0.226-0.552c-0.123-0.147-0.318-0.22-0.582-0.22c-0.532,0-0.879,0.181-1.048,0.551
					c-0.167,0.36-0.254,0.883-0.254,1.567v2.189c0,0.336-0.076,0.591-0.226,0.765c-0.156,0.171-0.355,0.258-0.603,0.258
					c-0.247,0-0.448-0.087-0.604-0.258c-0.158-0.173-0.235-0.428-0.235-0.765v-4.637c0-0.306,0.07-0.538,0.209-0.695
					c0.143-0.161,0.329-0.239,0.556-0.239c0.223,0,0.407,0.077,0.557,0.222c0.148,0.149,0.222,0.354,0.222,0.615v0.153
					c0.283-0.335,0.584-0.582,0.903-0.738c0.323-0.162,0.676-0.241,1.071-0.241c0.407,0,0.757,0.082,1.048,0.243
					c0.294,0.163,0.534,0.41,0.725,0.736c0.275-0.33,0.568-0.577,0.881-0.738c0.313-0.16,0.658-0.241,1.039-0.241
					c0.441,0,0.826,0.089,1.146,0.262c0.319,0.174,0.558,0.425,0.717,0.747c0.138,0.295,0.206,0.756,0.206,1.385v3.164
					c0,0.342-0.076,0.595-0.229,0.767c-0.154,0.17-0.359,0.255-0.612,0.255c-0.247,0-0.446-0.087-0.603-0.258
					c-0.156-0.173-0.235-0.428-0.235-0.765v-2.726c0-0.349-0.015-0.627-0.043-0.836c-0.029-0.211-0.111-0.388-0.239-0.529
					c-0.132-0.142-0.331-0.215-0.596-0.215c-0.214,0-0.416,0.066-0.608,0.192c-0.192,0.124-0.342,0.298-0.451,0.508
					C319.231,474.204,319.17,474.688,319.17,475.382"/>
			</g>
		</g>
		<g>
			<g>
				<path style="fill:#606060;" d="M178.765,477.632v-0.16c-0.218,0.249-0.432,0.452-0.644,0.608
					c-0.211,0.157-0.441,0.276-0.689,0.356c-0.247,0.082-0.517,0.122-0.81,0.122c-0.388,0-0.747-0.082-1.078-0.246
					c-0.33-0.164-0.616-0.399-0.857-0.704c-0.242-0.305-0.425-0.662-0.549-1.074s-0.187-0.857-0.187-1.335
					c0-1.013,0.247-1.804,0.742-2.369c0.495-0.565,1.146-0.848,1.953-0.848c0.467,0,0.861,0.08,1.181,0.24
					c0.321,0.161,0.633,0.408,0.938,0.739v-2.392c0-0.333,0.066-0.583,0.199-0.754c0.132-0.17,0.321-0.255,0.567-0.255
					c0.245,0,0.434,0.078,0.567,0.234c0.133,0.157,0.199,0.386,0.199,0.691v7.147c0,0.309-0.071,0.54-0.214,0.695
					c-0.143,0.154-0.326,0.231-0.552,0.231c-0.222,0-0.405-0.08-0.549-0.24C178.837,478.157,178.765,477.929,178.765,477.632z
					 M175.577,475.252c0,0.44,0.068,0.813,0.205,1.122c0.137,0.309,0.324,0.541,0.561,0.697c0.238,0.157,0.497,0.236,0.778,0.236
					c0.285,0,0.545-0.074,0.781-0.223c0.235-0.148,0.423-0.376,0.564-0.682c0.141-0.307,0.211-0.691,0.211-1.149
					c0-0.431-0.07-0.802-0.211-1.114c-0.14-0.31-0.33-0.547-0.57-0.712c-0.24-0.164-0.502-0.245-0.786-0.245
					c-0.297,0-0.562,0.084-0.796,0.252c-0.234,0.168-0.414,0.409-0.543,0.724C175.641,474.471,175.577,474.836,175.577,475.252z"/>
				<path style="fill:#606060;" d="M185.911,475.662h-3.17c0.004,0.367,0.078,0.692,0.223,0.973
					c0.144,0.281,0.336,0.493,0.576,0.635c0.24,0.143,0.504,0.213,0.793,0.213c0.194,0,0.371-0.022,0.531-0.067
					c0.161-0.046,0.316-0.116,0.466-0.214c0.151-0.096,0.289-0.201,0.415-0.312c0.126-0.111,0.29-0.262,0.493-0.452
					c0.083-0.071,0.202-0.107,0.357-0.107c0.166,0,0.3,0.046,0.403,0.137c0.103,0.092,0.155,0.219,0.155,0.386
					c0,0.146-0.058,0.317-0.172,0.513c-0.116,0.196-0.289,0.384-0.52,0.564c-0.232,0.18-0.522,0.329-0.873,0.448
					c-0.35,0.119-0.753,0.178-1.208,0.178c-1.04,0-1.85-0.297-2.428-0.891s-0.866-1.399-0.866-2.416
					c0-0.479,0.071-0.923,0.213-1.332c0.143-0.41,0.351-0.761,0.623-1.054c0.273-0.293,0.609-0.517,1.01-0.674
					c0.4-0.156,0.843-0.234,1.33-0.234c0.633,0,1.176,0.132,1.629,0.4c0.454,0.267,0.793,0.612,1.019,1.035
					c0.225,0.424,0.338,0.856,0.338,1.294c0,0.408-0.117,0.672-0.35,0.793C186.664,475.601,186.335,475.662,185.911,475.662z
					 M182.742,474.742h2.939c-0.039-0.554-0.19-0.969-0.448-1.244c-0.26-0.275-0.6-0.413-1.024-0.413
					c-0.404,0-0.735,0.139-0.994,0.418C182.954,473.782,182.798,474.195,182.742,474.742z"/>
				<path style="fill:#606060;" d="M193.296,476.439c0,0.447-0.108,0.831-0.327,1.149c-0.217,0.319-0.539,0.56-0.965,0.724
					c-0.425,0.164-0.943,0.246-1.552,0.246c-0.582,0-1.08-0.089-1.496-0.267c-0.415-0.178-0.722-0.401-0.92-0.667
					c-0.198-0.268-0.297-0.535-0.297-0.805c0-0.178,0.063-0.33,0.19-0.456c0.126-0.126,0.287-0.19,0.481-0.19
					c0.17,0,0.3,0.042,0.391,0.125c0.091,0.083,0.178,0.2,0.261,0.35c0.166,0.29,0.366,0.504,0.597,0.648
					c0.231,0.142,0.547,0.214,0.947,0.214c0.324,0,0.59-0.073,0.798-0.217c0.208-0.145,0.311-0.31,0.311-0.496
					c0-0.285-0.107-0.492-0.324-0.622c-0.216-0.131-0.571-0.256-1.066-0.375c-0.558-0.138-1.012-0.284-1.362-0.436
					c-0.35-0.151-0.63-0.353-0.84-0.602c-0.21-0.25-0.315-0.557-0.315-0.92c0-0.324,0.097-0.631,0.291-0.92
					c0.194-0.288,0.48-0.519,0.859-0.691c0.377-0.173,0.833-0.259,1.367-0.259c0.42,0,0.797,0.043,1.131,0.131
					c0.335,0.086,0.614,0.204,0.837,0.35c0.224,0.146,0.394,0.308,0.51,0.486c0.117,0.178,0.175,0.352,0.175,0.523
					c0,0.185-0.062,0.338-0.186,0.457c-0.124,0.118-0.301,0.178-0.532,0.178c-0.166,0-0.308-0.048-0.424-0.143
					c-0.117-0.095-0.25-0.237-0.401-0.427c-0.123-0.158-0.266-0.285-0.433-0.38c-0.166-0.095-0.392-0.142-0.677-0.142
					c-0.293,0-0.536,0.062-0.73,0.187c-0.194,0.124-0.291,0.279-0.291,0.465c0,0.171,0.071,0.31,0.213,0.419
					c0.143,0.109,0.335,0.199,0.577,0.27c0.241,0.071,0.573,0.158,0.997,0.261c0.502,0.123,0.912,0.27,1.231,0.439
					c0.318,0.17,0.56,0.371,0.725,0.603C193.214,475.878,193.296,476.142,193.296,476.439z"/>
				<path style="fill:#606060;" d="M194.951,471.216c-0.226,0-0.418-0.07-0.579-0.208c-0.16-0.138-0.24-0.334-0.24-0.588
					c0-0.23,0.082-0.418,0.246-0.567c0.164-0.149,0.355-0.223,0.573-0.223c0.21,0,0.396,0.067,0.558,0.202
					c0.162,0.135,0.244,0.33,0.244,0.588c0,0.25-0.08,0.444-0.238,0.585C195.357,471.145,195.169,471.216,194.951,471.216z
					 M195.753,472.889v4.683c0,0.325-0.077,0.571-0.232,0.737c-0.155,0.166-0.35,0.249-0.588,0.249s-0.431-0.085-0.579-0.255
					c-0.149-0.17-0.222-0.414-0.222-0.731v-4.636c0-0.32,0.074-0.562,0.222-0.724c0.148-0.162,0.341-0.243,0.579-0.243
					s0.433,0.081,0.588,0.243C195.675,472.375,195.753,472.601,195.753,472.889z"/>
				<path style="fill:#606060;" d="M202.852,473.157v4.707c0,0.538-0.058,1.002-0.173,1.39c-0.114,0.387-0.298,0.708-0.552,0.961
					c-0.253,0.253-0.585,0.441-0.994,0.563c-0.41,0.123-0.919,0.184-1.529,0.184c-0.558,0-1.057-0.078-1.496-0.234
					c-0.439-0.157-0.777-0.358-1.015-0.605c-0.237-0.247-0.356-0.502-0.356-0.763c0-0.198,0.067-0.359,0.202-0.483
					c0.134-0.125,0.297-0.187,0.486-0.187c0.238,0,0.445,0.105,0.624,0.314c0.087,0.107,0.177,0.215,0.27,0.324
					c0.093,0.109,0.197,0.202,0.309,0.28c0.113,0.076,0.248,0.134,0.406,0.171c0.158,0.037,0.341,0.056,0.546,0.056
					c0.42,0,0.745-0.058,0.977-0.175c0.232-0.117,0.394-0.28,0.487-0.49c0.093-0.209,0.147-0.433,0.163-0.673
					c0.016-0.24,0.027-0.624,0.035-1.155c-0.25,0.349-0.537,0.615-0.864,0.796c-0.326,0.182-0.715,0.273-1.166,0.273
					c-0.542,0-1.016-0.139-1.422-0.416c-0.405-0.277-0.717-0.665-0.934-1.163c-0.218-0.499-0.326-1.074-0.326-1.727
					c0-0.486,0.066-0.927,0.198-1.318c0.133-0.392,0.322-0.723,0.567-0.992c0.245-0.269,0.528-0.472,0.849-0.608
					c0.32-0.136,0.673-0.204,1.057-0.204c0.459,0,0.857,0.089,1.193,0.264c0.336,0.177,0.649,0.453,0.938,0.829v-0.22
					c0-0.281,0.069-0.498,0.207-0.653c0.139-0.154,0.317-0.231,0.535-0.231c0.313,0,0.52,0.103,0.623,0.306
					C202.8,472.479,202.852,472.773,202.852,473.157z M198.156,475.21c0,0.657,0.143,1.154,0.43,1.49
					c0.287,0.337,0.658,0.505,1.113,0.505c0.269,0,0.523-0.073,0.762-0.217c0.24-0.145,0.435-0.363,0.585-0.653
					c0.15-0.291,0.225-0.644,0.225-1.06c0-0.66-0.145-1.176-0.436-1.543c-0.291-0.368-0.674-0.552-1.149-0.552
					c-0.463,0-0.834,0.176-1.113,0.529C198.296,474.061,198.156,474.562,198.156,475.21z"/>
				<path style="fill:#606060;" d="M205.427,472.866v0.196c0.284-0.376,0.596-0.652,0.935-0.828
					c0.339-0.176,0.727-0.264,1.166-0.264c0.428,0,0.809,0.093,1.146,0.28c0.336,0.186,0.588,0.449,0.753,0.789
					c0.107,0.198,0.176,0.413,0.208,0.642c0.032,0.23,0.048,0.522,0.048,0.879v3.015c0,0.325-0.074,0.571-0.223,0.737
					c-0.148,0.166-0.341,0.249-0.579,0.249c-0.242,0-0.437-0.085-0.588-0.255c-0.151-0.17-0.226-0.414-0.226-0.731v-2.701
					c0-0.534-0.074-0.943-0.223-1.226c-0.149-0.283-0.444-0.425-0.888-0.425c-0.288,0-0.552,0.086-0.789,0.258
					c-0.238,0.173-0.412,0.41-0.523,0.71c-0.079,0.242-0.119,0.692-0.119,1.353v2.03c0,0.328-0.077,0.576-0.228,0.74
					c-0.152,0.164-0.349,0.246-0.59,0.246c-0.234,0-0.425-0.085-0.576-0.255c-0.15-0.17-0.225-0.414-0.225-0.731v-4.683
					c0-0.309,0.067-0.54,0.202-0.692c0.135-0.152,0.319-0.228,0.552-0.228c0.143,0,0.272,0.034,0.387,0.101
					c0.114,0.068,0.206,0.168,0.276,0.302C205.393,472.507,205.427,472.672,205.427,472.866z"/>
				<path style="fill:#606060;" d="M215.286,475.662h-3.17c0.004,0.367,0.078,0.692,0.223,0.973
					c0.144,0.281,0.336,0.493,0.576,0.635c0.239,0.143,0.503,0.213,0.792,0.213c0.194,0,0.371-0.022,0.532-0.067
					c0.16-0.046,0.315-0.116,0.466-0.214c0.15-0.096,0.288-0.201,0.416-0.312c0.126-0.111,0.29-0.262,0.492-0.452
					c0.083-0.071,0.202-0.107,0.356-0.107c0.166,0,0.301,0.046,0.404,0.137c0.103,0.092,0.154,0.219,0.154,0.386
					c0,0.146-0.057,0.317-0.172,0.513c-0.115,0.196-0.288,0.384-0.52,0.564c-0.232,0.18-0.522,0.329-0.872,0.448
					c-0.35,0.119-0.753,0.178-1.208,0.178c-1.041,0-1.85-0.297-2.428-0.891c-0.577-0.593-0.866-1.399-0.866-2.416
					c0-0.479,0.072-0.923,0.214-1.332c0.143-0.41,0.351-0.761,0.624-1.054c0.273-0.293,0.609-0.517,1.009-0.674
					c0.399-0.156,0.843-0.234,1.33-0.234c0.633,0,1.175,0.132,1.629,0.4c0.454,0.267,0.793,0.612,1.019,1.035
					c0.225,0.424,0.338,0.856,0.338,1.294c0,0.408-0.117,0.672-0.35,0.793C216.039,475.601,215.71,475.662,215.286,475.662z
					 M212.117,474.742h2.938c-0.039-0.554-0.189-0.969-0.448-1.244c-0.259-0.275-0.601-0.413-1.024-0.413
					c-0.404,0-0.736,0.139-0.995,0.418C212.329,473.782,212.173,474.195,212.117,474.742z"/>
				<path style="fill:#606060;" d="M221.893,477.632v-0.16c-0.218,0.249-0.432,0.452-0.644,0.608
					c-0.212,0.157-0.441,0.276-0.689,0.356c-0.247,0.082-0.517,0.122-0.81,0.122c-0.388,0-0.747-0.082-1.078-0.246
					c-0.331-0.164-0.617-0.399-0.858-0.704c-0.242-0.305-0.425-0.662-0.549-1.074c-0.125-0.412-0.187-0.857-0.187-1.335
					c0-1.013,0.247-1.804,0.742-2.369c0.495-0.565,1.146-0.848,1.953-0.848c0.467,0,0.861,0.08,1.181,0.24
					c0.32,0.161,0.633,0.408,0.938,0.739v-2.392c0-0.333,0.067-0.583,0.199-0.754c0.132-0.17,0.322-0.255,0.567-0.255
					c0.245,0,0.434,0.078,0.567,0.234c0.132,0.157,0.199,0.386,0.199,0.691v7.147c0,0.309-0.071,0.54-0.214,0.695
					c-0.143,0.154-0.326,0.231-0.552,0.231c-0.222,0-0.405-0.08-0.549-0.24C221.965,478.157,221.893,477.929,221.893,477.632z
					 M218.705,475.252c0,0.44,0.068,0.813,0.204,1.122c0.136,0.309,0.324,0.541,0.562,0.697c0.237,0.157,0.496,0.236,0.777,0.236
					c0.285,0,0.546-0.074,0.781-0.223c0.236-0.148,0.424-0.376,0.564-0.682c0.141-0.307,0.211-0.691,0.211-1.149
					c0-0.431-0.07-0.802-0.211-1.114c-0.14-0.31-0.33-0.547-0.57-0.712c-0.24-0.164-0.502-0.245-0.787-0.245
					c-0.296,0-0.562,0.084-0.795,0.252c-0.233,0.168-0.414,0.409-0.543,0.724C218.769,474.471,218.705,474.836,218.705,475.252z"/>
				<path style="fill:#606060;" d="M228.516,470.485v2.475c0.305-0.316,0.615-0.559,0.932-0.727
					c0.316-0.168,0.709-0.252,1.175-0.252c0.538,0,1.01,0.128,1.416,0.382c0.405,0.256,0.72,0.626,0.944,1.111
					c0.223,0.484,0.336,1.06,0.336,1.725c0,0.491-0.063,0.94-0.187,1.35c-0.125,0.41-0.306,0.765-0.543,1.065
					c-0.238,0.301-0.525,0.534-0.864,0.698c-0.339,0.164-0.712,0.246-1.119,0.246c-0.25,0-0.484-0.029-0.703-0.089
					c-0.22-0.059-0.407-0.137-0.561-0.234c-0.154-0.096-0.286-0.197-0.395-0.3c-0.109-0.103-0.253-0.258-0.43-0.463v0.16
					c0,0.305-0.073,0.535-0.22,0.692c-0.146,0.156-0.332,0.234-0.558,0.234c-0.23,0-0.413-0.077-0.549-0.234
					c-0.137-0.157-0.205-0.388-0.205-0.692v-7.076c0-0.328,0.066-0.577,0.198-0.745c0.133-0.168,0.318-0.252,0.555-0.252
					c0.25,0,0.441,0.08,0.576,0.24C228.449,469.96,228.516,470.188,228.516,470.485z M228.594,475.3c0,0.645,0.147,1.14,0.442,1.486
					c0.295,0.347,0.682,0.521,1.161,0.521c0.407,0,0.759-0.177,1.053-0.532c0.295-0.355,0.442-0.862,0.442-1.523
					c0-0.427-0.061-0.796-0.184-1.104c-0.123-0.309-0.297-0.547-0.522-0.715c-0.226-0.168-0.489-0.252-0.79-0.252
					c-0.309,0-0.584,0.084-0.825,0.252c-0.241,0.168-0.431,0.411-0.57,0.73C228.663,474.481,228.594,474.86,228.594,475.3z"/>
				<path style="fill:#606060;" d="M235.42,478.76l0.148-0.362l-1.995-5.022c-0.122-0.288-0.184-0.499-0.184-0.629
					c0-0.138,0.036-0.267,0.107-0.385c0.071-0.119,0.169-0.214,0.294-0.285c0.125-0.072,0.255-0.107,0.389-0.107
					c0.233,0,0.409,0.074,0.529,0.223c0.119,0.148,0.223,0.361,0.314,0.638l1.372,3.989l1.3-3.71c0.103-0.3,0.196-0.536,0.279-0.706
					c0.083-0.17,0.171-0.285,0.264-0.344c0.093-0.06,0.225-0.09,0.395-0.09c0.123,0,0.24,0.032,0.353,0.098
					c0.113,0.065,0.2,0.153,0.261,0.264c0.061,0.111,0.093,0.227,0.093,0.35c-0.017,0.075-0.042,0.182-0.077,0.321
					c-0.036,0.138-0.079,0.28-0.13,0.421l-2.113,5.533c-0.182,0.486-0.36,0.868-0.535,1.145c-0.174,0.277-0.404,0.491-0.692,0.638
					c-0.287,0.149-0.674,0.223-1.161,0.223c-0.475,0-0.831-0.051-1.068-0.154c-0.238-0.104-0.356-0.292-0.356-0.565
					c0-0.185,0.056-0.33,0.169-0.43c0.112-0.101,0.28-0.152,0.501-0.152c0.087,0,0.173,0.012,0.256,0.037
					c0.103,0.023,0.192,0.035,0.267,0.035c0.186,0,0.333-0.027,0.44-0.084c0.106-0.055,0.202-0.151,0.288-0.288
					C235.211,479.227,235.309,479.025,235.42,478.76z"/>
			</g>
		</g>
		<g>
			<g>
				<path style="fill:#606060;" d="M243.729,474.871c-0.001-0.003-0.001-0.006-0.001-0.011
					C243.728,474.865,243.728,474.867,243.729,474.871z"/>
				<path style="fill:#606060;" d="M243.811,475.389c0.001,0,0.001,0,0.001,0c-0.031-0.148-0.055-0.294-0.074-0.439
					C243.758,475.096,243.782,475.243,243.811,475.389z"/>
				<path style="fill:#606060;" d="M244.348,476.893c-0.004-0.006-0.007-0.014-0.011-0.021
					C244.341,476.879,244.344,476.887,244.348,476.893z"/>
				<path style="fill:#606060;" d="M244.296,476.793c-0.014-0.028-0.027-0.056-0.041-0.084
					C244.269,476.738,244.282,476.765,244.296,476.793z"/>
				<path style="fill:#606060;" d="M243.962,475.968c0.079,0.25,0.175,0.492,0.286,0.724c-0.113-0.236-0.206-0.479-0.283-0.724
					C243.964,475.968,243.963,475.968,243.962,475.968z"/>
				<path style="fill:#606060;" d="M250.003,468.66c0.313,0,0.544,0.025,0.809,0.07l0.075-0.477c0,0-0.732-0.225-1.694-0.147
					l-0.076-0.259c0.299-0.063,0.524-0.329,0.524-0.646c0-0.364-0.296-0.659-0.661-0.659c-0.364,0-0.66,0.295-0.66,0.659
					c0,0.317,0.224,0.583,0.522,0.646l0.084,0.289c-1.021,0.14-1.834,0.539-1.834,0.539l0.144,0.441
					c0.618-0.206,1.154-0.331,1.64-0.383C249.353,468.682,249.711,468.66,250.003,468.66z"/>
				<path style="fill:#606060;" d="M244.335,471.072l0.004-0.005c0.024-0.031,0.047-0.06,0.071-0.089l-0.196-0.141l-0.305-0.223
					c-0.017,0.024-0.497,0.465-0.876,1.28c-0.016-0.026-0.035-0.051-0.056-0.074c-0.113-0.124-0.272-0.187-0.474-0.184
					c-0.003,0-0.006,0-0.009,0c-0.125,0-0.211-0.042-0.267-0.092c0.056-0.071,0.089-0.16,0.089-0.258
					c0-0.23-0.187-0.418-0.418-0.418c-0.23,0-0.418,0.188-0.418,0.418c0,0.231,0.187,0.418,0.418,0.418
					c0.036,0,0.071-0.006,0.104-0.013c0.103,0.114,0.266,0.214,0.505,0.209c0.123-0.001,0.213,0.031,0.273,0.097
					c0.069,0.076,0.093,0.185,0.1,0.267c-0.001,0.001-0.001,0.003-0.002,0.003c-0.272,0.743-0.194,1.669-0.194,1.669l0.661,0.026
					c0.014-0.337,0.062-0.927,0.232-1.394C243.907,471.662,244.319,471.095,244.335,471.072z"/>
				<path style="fill:#606060;" d="M255.753,469.213c-0.23,0-0.418,0.187-0.418,0.418c0,0.036,0.006,0.07,0.015,0.103
					c-0.115,0.104-0.214,0.267-0.211,0.507c0.002,0.123-0.03,0.212-0.096,0.273c-0.053,0.047-0.12,0.072-0.185,0.088
					c-0.492-0.689-1.098-1.11-1.098-1.11L253.285,470c0.358,0.326,0.725,0.734,1.08,1.244c0.246,0.352,0.499,0.806,0.71,1.259
					l0.64-0.304c0,0-0.292-0.722-0.704-1.37c0.071-0.025,0.143-0.064,0.207-0.12c0.125-0.113,0.187-0.273,0.183-0.474
					c-0.001-0.13,0.041-0.218,0.093-0.276c0.071,0.054,0.16,0.089,0.258,0.089c0.232,0,0.419-0.187,0.419-0.418
					C256.171,469.399,255.984,469.213,255.753,469.213z"/>
				<path style="fill:#606060;" d="M254.092,474.964c-0.881,0.429-2.33,0.996-4.238,1.262c-0.749,0.104-1.475,0.142-2.143,0.142
					c-0.869,0-1.637-0.065-2.227-0.139c-0.673-0.085-1.198-0.189-1.52-0.261c0.077,0.245,0.171,0.488,0.283,0.724
					c0.002,0.006,0.005,0.013,0.008,0.017c0.013,0.027,0.027,0.056,0.041,0.084c0.013,0.027,0.027,0.054,0.04,0.079
					c0.004,0.007,0.007,0.015,0.011,0.021c0.189,0.356,0.417,0.684,0.675,0.968c0.9,0.984,1.817,1.14,1.826,1.141l0.014,0.002
					l0.013,0.005c0.008,0.003,0.821,0.266,2.057,0.266c1.216,0,2.409-0.245,3.546-0.729c0.842-0.431,1.639-1.085,2.034-1.669
					c0.305-0.452,0.525-0.933,0.656-1.434c0.069-0.266,0.124-0.692,0.092-1.141C255.014,474.468,254.622,474.706,254.092,474.964z"
					/>
				<path style="fill:#606060;" d="M244.618,471.28c-0.026,0.037-0.408,0.578-0.709,1.408c-0.226,0.622-0.216,1.527-0.216,1.537
					v0.002c0,0.212,0.012,0.423,0.035,0.632c0,0.005,0,0.008,0.001,0.011c0.002,0.027,0.007,0.052,0.009,0.079
					c0.019,0.145,0.043,0.291,0.074,0.439c0.438,0.111,3.049,0.72,5.968,0.314c1.829-0.254,3.218-0.795,4.062-1.204
					c0.701-0.34,1.151-0.648,1.325-0.774c-0.173-0.643-0.651-1.65-1.089-2.279c-1.253-1.791-2.604-2.25-3.298-2.365
					c-0.265-0.043-0.477-0.068-0.777-0.068c-0.28,0-0.626,0.023-1.089,0.072c-0.465,0.048-0.982,0.17-1.583,0.372
					c-0.842,0.282-1.605,0.725-2.204,1.28l-0.02,0.019C245.017,470.837,244.832,471.009,244.618,471.28z M252.287,470.864
					c0.601,0,1.089,0.488,1.089,1.09s-0.489,1.09-1.089,1.09c-0.601,0-1.089-0.489-1.089-1.09S251.686,470.864,252.287,470.864z
					 M247.136,470.82c0.973,0,1.761,0.789,1.761,1.761c0,0.972-0.788,1.759-1.761,1.759c-0.972,0-1.76-0.787-1.76-1.759
					C245.376,471.609,246.164,470.82,247.136,470.82z"/>
			</g>
		</g>
	</g>
</g>
<g id="OBJECTS">
	<g id="Capa_4">
	</g>
	<g>
		<path style="fill:#A06E33;" d="M295.34,70.886c0-4.759-2.952-6.752-6.365-7.578c-1.676-0.405-3.401-0.57-5.126-0.57h-34.198
			h-34.198c-1.724,0-3.45,0.165-5.126,0.57c-3.413,0.825-6.365,2.818-6.365,7.578c0,7.615-1.98,26.347-8.833,31.107l54.522,0
			l54.522,0C297.32,97.234,295.34,78.501,295.34,70.886z"/>
		<polygon style="fill:#A06E33;" points="295.494,161.562 203.912,161.562 198.938,104.772 300.468,104.772 		"/>
		<g style="opacity:0.2;">
			<polygon style="fill:#3E2C38;" points="295.738,158.771 203.667,158.771 203.793,160.209 295.613,160.209 			"/>
			<polygon style="fill:#3E2C38;" points="203.103,152.327 296.303,152.327 296.429,150.89 202.977,150.89 			"/>
			<polygon style="fill:#3E2C38;" points="201.722,136.564 297.684,136.564 297.809,135.127 201.596,135.127 			"/>
			<polygon style="fill:#3E2C38;" points="202.413,144.446 296.993,144.446 297.119,143.008 202.287,143.008 			"/>
			<polygon style="fill:#3E2C38;" points="201.032,128.683 298.374,128.683 298.5,127.246 200.906,127.246 			"/>
			<polygon style="fill:#3E2C38;" points="199.651,112.92 299.754,112.92 299.88,111.483 199.525,111.483 			"/>
			<polygon style="fill:#3E2C38;" points="200.342,120.802 299.064,120.802 299.19,119.364 200.216,119.364 			"/>
		</g>
		<g>
			<rect x="211.596" y="102.869" style="fill:#EAC14B;" width="9.404" height="58.693"/>
			<circle style="fill:#3E2C38;" cx="216.298" cy="116.728" r="1.828"/>
			<path style="fill:#3E2C38;" d="M218.126,129.792c0,1.009-0.818,1.828-1.828,1.828c-1.009,0-1.828-0.818-1.828-1.828
				c0-1.009,0.818-1.827,1.828-1.827C217.307,127.965,218.126,128.783,218.126,129.792z"/>
			<path style="fill:#3E2C38;" d="M218.126,142.856c0,1.009-0.818,1.828-1.828,1.828c-1.009,0-1.828-0.818-1.828-1.828
				c0-1.009,0.818-1.827,1.828-1.827C217.307,141.029,218.126,141.847,218.126,142.856z"/>
			<path style="fill:#3E2C38;" d="M218.126,155.921c0,1.009-0.818,1.827-1.828,1.827c-1.009,0-1.828-0.818-1.828-1.827
				c0-1.009,0.818-1.828,1.828-1.828C217.307,154.093,218.126,154.911,218.126,155.921z"/>
		</g>
		<g>
			<rect x="278.302" y="102.869" style="fill:#EAC14B;" width="9.404" height="58.693"/>
			<path style="fill:#3E2C38;" d="M284.832,116.728c0,1.009-0.818,1.828-1.828,1.828c-1.009,0-1.827-0.818-1.827-1.828
				c0-1.009,0.818-1.828,1.827-1.828C284.014,114.9,284.832,115.718,284.832,116.728z"/>
			<path style="fill:#3E2C38;" d="M284.832,129.792c0,1.009-0.818,1.828-1.828,1.828c-1.009,0-1.827-0.818-1.827-1.828
				c0-1.009,0.818-1.827,1.827-1.827C284.014,127.965,284.832,128.783,284.832,129.792z"/>
			<path style="fill:#3E2C38;" d="M284.832,142.856c0,1.009-0.818,1.828-1.828,1.828c-1.009,0-1.827-0.818-1.827-1.828
				c0-1.009,0.818-1.827,1.827-1.827C284.014,141.029,284.832,141.847,284.832,142.856z"/>
			<path style="fill:#3E2C38;" d="M284.832,155.921c0,1.009-0.818,1.827-1.828,1.827c-1.009,0-1.827-0.818-1.827-1.827
				c0-1.009,0.818-1.828,1.827-1.828C284.014,154.093,284.832,154.911,284.832,155.921z"/>
		</g>
		<path style="fill:#EAC14B;" d="M304.668,107.552H194.405c-1.529,0-2.78-1.251-2.78-2.779l0,0c0-1.529,1.251-2.78,2.78-2.78
			h110.263c1.529,0,2.78,1.251,2.78,2.78l0,0C307.448,106.301,306.197,107.552,304.668,107.552z"/>
		<path style="opacity:0.2;fill:#3E2C38;" d="M304.668,105.648H194.405c-1.193,0-2.208-0.766-2.6-1.828
			c-0.11,0.298-0.18,0.616-0.18,0.952c0,1.529,1.251,2.779,2.78,2.779h110.263c1.529,0,2.78-1.251,2.78-2.779
			c0-0.336-0.069-0.654-0.18-0.952C306.876,104.882,305.862,105.648,304.668,105.648z"/>
		<g style="opacity:0.2;">
			<path style="fill:#3E2C38;" d="M203.82,74.933h91.662c-0.031-0.497-0.057-0.977-0.078-1.437h-91.506
				C203.878,73.956,203.852,74.436,203.82,74.933z"/>
			<path style="fill:#3E2C38;" d="M202.975,82.815h93.352c-0.073-0.483-0.141-0.961-0.205-1.437H203.18
				C203.116,81.854,203.048,82.332,202.975,82.815z"/>
			<path style="fill:#3E2C38;" d="M201.333,90.696h96.637c-0.131-0.474-0.255-0.954-0.375-1.437h-95.888
				C201.588,89.743,201.463,90.222,201.333,90.696z"/>
			<path style="fill:#3E2C38;" d="M204.827,67.052h89.648c-0.29-0.543-0.64-1.022-1.046-1.437h-87.557
				C205.467,66.03,205.117,66.509,204.827,67.052z"/>
			<path style="fill:#3E2C38;" d="M300.353,97.14H198.95c-0.254,0.505-0.523,0.982-0.801,1.437h103.005
				C300.876,98.122,300.607,97.646,300.353,97.14z"/>
		</g>
		<g>
			<path style="fill:#EAC14B;" d="M237.214,126.246c0-6.897,5.591-5.94,12.488-5.94c6.897,0,12.488-0.957,12.488,5.94
				c0,6.897-5.591,12.488-12.488,12.488C242.806,138.735,237.214,133.143,237.214,126.246z"/>
		</g>
		<g>
			<path style="fill:#EAC14B;" d="M241.059,122.852c-0.07-0.511-1.647-12.571,2.98-17.87c1.467-1.68,3.373-2.532,5.663-2.532
				c2.289,0,4.204,0.851,5.692,2.53c4.692,5.295,3.293,17.342,3.231,17.852l-2.722-0.329c0.378-3.139,0.654-12.079-2.563-15.707
				c-0.958-1.08-2.149-1.605-3.639-1.605c-1.484,0-2.661,0.521-3.597,1.593c-3.163,3.619-2.755,12.56-2.33,15.699L241.059,122.852z"
				/>
		</g>
		<g>
			<circle style="fill:#3E2C38;" cx="249.651" cy="127.246" r="2.708"/>
			<polygon style="fill:#3E2C38;" points="250.72,128.455 248.582,128.455 247.426,133.036 251.876,133.036 			"/>
		</g>
		<g>
			<path style="fill:#EAC14B;" d="M217.927,105.725c-0.585,0-1.178-0.161-1.708-0.497c-1.493-0.945-1.936-2.921-0.99-4.413
				c0.064-0.102,6.707-10.854,3.561-20.608c-3.455-10.708,3.83-17.747,4.141-18.042c1.285-1.212,3.308-1.154,4.521,0.129
				c1.207,1.279,1.156,3.291-0.112,4.505c-0.221,0.217-4.646,4.677-2.462,11.444c4.078,12.64-3.903,25.456-4.245,25.995
				C220.023,105.199,218.986,105.725,217.927,105.725z"/>
		</g>
		<g>
			<path style="fill:#EAC14B;" d="M281.479,105.725c0.585,0,1.177-0.161,1.708-0.497c1.492-0.945,1.935-2.921,0.99-4.413
				c-0.064-0.102-6.708-10.854-3.561-20.608c3.455-10.708-3.83-17.747-4.141-18.042c-1.285-1.212-3.309-1.154-4.521,0.129
				c-1.207,1.279-1.156,3.291,0.112,4.505c0.221,0.217,4.646,4.677,2.462,11.444c-4.078,12.64,3.903,25.456,4.245,25.995
				C279.383,105.199,280.419,105.725,281.479,105.725z"/>
		</g>
	</g>
	<g>
		<path style="fill:#30252D;" d="M380.447,215.941v65.714c0,0,57.661,12.654,98.93-4.849l-10.065-5.706l10.065-5.48l-10.737-5.583
			l10.257-5.081l-11.12-4.601l10.353-4.697l-11.12-5.368l10.928-5.368l-11.599-4.793l11.743-5.56l-14.092-6.902
			C463.991,217.666,424.16,225.863,380.447,215.941z"/>
		<g>
			<g>
				<path style="fill:#FFFFFF;" d="M442.095,238.694c0,7.083-7.094,12.825-15.846,12.825s-15.845-5.742-15.845-12.825
					c0-7.083,7.094-12.825,15.845-12.825S442.095,231.611,442.095,238.694z"/>
				<path style="fill:#FFFFFF;" d="M426.828,249.851c-0.586,1.908-4.547,2.385-8.847,1.064c-4.3-1.32-7.311-3.938-6.725-5.846
					c0.586-1.909,4.547-2.385,8.847-1.065C424.403,245.325,427.414,247.943,426.828,249.851z"/>
				<path style="fill:#FFFFFF;" d="M422.112,253.501c-0.63,1.823-1.61,3.097-2.19,2.846c-0.579-0.252-0.538-1.933,0.092-3.756
					c0.63-1.823,1.61-3.097,2.19-2.845C422.783,249.997,422.742,251.678,422.112,253.501z"/>
				<path style="fill:#FFFFFF;" d="M424.291,253.726c-0.339,1.918-1.108,3.363-1.717,3.227c-0.609-0.135-0.829-1.799-0.49-3.717
					c0.339-1.918,1.108-3.362,1.717-3.227C424.411,250.144,424.63,251.808,424.291,253.726z"/>
				<path style="fill:#FFFFFF;" d="M426.227,253.706c-0.03,1.955-0.559,3.529-1.18,3.517c-0.621-0.012-1.1-1.607-1.069-3.561
					c0.03-1.955,0.559-3.517,1.18-3.517C426.482,250.145,426.258,251.752,426.227,253.706z"/>
				<path style="fill:#FFFFFF;" d="M425.586,249.851c0.586,1.908,4.547,2.385,8.847,1.064c4.3-1.32,7.311-3.938,6.725-5.846
					c-0.586-1.909-4.547-2.385-8.847-1.065C428.011,245.325,425,247.943,425.586,249.851z"/>
				<path style="fill:#FFFFFF;" d="M430.327,253.501c0.63,1.823,1.61,3.097,2.19,2.846c0.579-0.252,0.538-1.933-0.092-3.756
					c-0.63-1.823-1.61-3.097-2.19-2.845C429.656,249.997,429.697,251.678,430.327,253.501z"/>
				<path style="fill:#FFFFFF;" d="M428.148,253.726c0.339,1.918,1.107,3.363,1.717,3.227c0.609-0.135,0.829-1.799,0.49-3.717
					c-0.339-1.918-1.108-3.362-1.717-3.227C428.029,250.144,427.809,251.808,428.148,253.726z"/>
				<path style="fill:#FFFFFF;" d="M426.212,253.706c0.031,1.955,0.559,3.529,1.18,3.517c0.621-0.012,1.1-1.607,1.069-3.561
					c-0.031-1.955-0.559-3.517-1.18-3.517C425.957,250.145,426.182,251.752,426.212,253.706z"/>
				<path style="fill:#FFFFFF;" d="M440.561,244.205c0.983-1.67,1.534-3.538,1.534-5.511c0-7.083-7.094-12.825-15.846-12.825
					s-15.845,5.742-15.845,12.825c0,1.954,0.541,3.806,1.507,5.464c-0.321,0.253-0.546,0.558-0.655,0.912
					c-0.586,1.909,2.425,4.526,6.725,5.846c0.85,0.261,1.686,0.451,2.486,0.575c-0.162,0.334-0.316,0.704-0.452,1.1
					c-0.63,1.823-0.671,3.505-0.092,3.756c0.546,0.237,1.447-0.879,2.076-2.533c-0.204,1.664,0.029,3.018,0.576,3.14
					c0.481,0.107,1.061-0.772,1.451-2.09c0.135,1.367,0.534,2.35,1.022,2.36c0.593,0.011,1.102-1.426,1.173-3.258
					c0.071,1.833,0.579,3.27,1.172,3.258c0.487-0.01,0.887-0.993,1.022-2.36c0.39,1.318,0.97,2.197,1.451,2.09
					c0.547-0.121,0.78-1.476,0.576-3.14c0.629,1.654,1.531,2.77,2.076,2.533c0.579-0.252,0.538-1.933-0.092-3.756
					c-0.137-0.397-0.291-0.769-0.454-1.104c0.793-0.123,1.621-0.313,2.462-0.571c4.3-1.32,7.311-3.938,6.725-5.846
					C441.056,244.737,440.852,244.449,440.561,244.205z"/>
				<g>
					<path style="fill:#FFFFFF;" d="M428.107,260.114c0.339-1.188,1.108-2.083,1.717-1.999c0.609,0.084,0.829,1.115,0.49,2.302
						c-0.339,1.188-1.108,2.082-1.717,1.998C427.988,262.333,427.769,261.302,428.107,260.114z"/>
					<path style="fill:#FFFFFF;" d="M426.172,260.126c0.03-1.211,0.559-2.186,1.18-2.179c0.621,0.008,1.1,0.995,1.069,2.206
						c-0.031,1.211-0.559,2.178-1.18,2.178C425.916,262.332,426.141,261.337,426.172,260.126z"/>
					<path style="fill:#FFFFFF;" d="M424.251,260.114c-0.339-1.188-1.108-2.083-1.717-1.999c-0.609,0.084-0.829,1.115-0.49,2.302
						c0.339,1.188,1.108,2.082,1.717,1.998C424.37,262.333,424.589,261.302,424.251,260.114z"/>
					<path style="fill:#FFFFFF;" d="M426.186,260.126c-0.031-1.211-0.559-2.186-1.18-2.179c-0.621,0.008-1.1,0.995-1.069,2.206
						c0.03,1.211,0.559,2.178,1.18,2.178C426.442,262.332,426.217,261.337,426.186,260.126z"/>
					<path style="fill:#FFFFFF;" d="M429.211,261.952c0,0.52-1.357,0.941-3.032,0.941c-1.674,0-3.032-0.421-3.032-0.941
						c0-0.52,1.357-0.941,3.032-0.941C427.853,261.011,429.211,261.432,429.211,261.952z"/>
					<path style="fill:#FFFFFF;" d="M429.824,258.115c-0.481-0.066-1.061,0.478-1.451,1.294c-0.135-0.846-0.534-1.456-1.022-1.462
						c-0.594-0.007-1.102,0.883-1.173,2.018c-0.071-1.135-0.579-2.025-1.173-2.018c-0.487,0.006-0.887,0.615-1.022,1.462
						c-0.39-0.816-0.97-1.361-1.451-1.294c-0.609,0.084-0.829,1.115-0.49,2.302c0.294,1.03,0.911,1.839,1.467,1.981
						c0.513,0.294,1.515,0.494,2.668,0.494c1.153,0,2.156-0.2,2.668-0.494c0.556-0.142,1.173-0.951,1.467-1.981
						C430.653,259.23,430.434,258.199,429.824,258.115z"/>
				</g>
				<g>
					<path style="fill:#30252D;" d="M415.876,244.168c0,0,1.835-2.179,3.944-0.921c2.11,1.258,4.409,3.945,5.805,3.152
						c0,0-0.76,1.041-1.998,0.582c0,0-2.049,3.643-5.182,2.247c-3.194-1.423-2.408-4.334-1.72-4.919
						C416.724,244.309,417.091,243.9,415.876,244.168z"/>
				</g>
				<g>
					<path style="fill:#30252D;" d="M436.572,244.168c0,0-1.835-2.179-3.944-0.921c-2.11,1.258-4.409,3.945-5.805,3.152
						c0,0,0.76,1.041,1.998,0.582c0,0,2.049,3.643,5.182,2.247c3.194-1.423,2.408-4.334,1.72-4.919
						C435.723,244.309,435.356,243.9,436.572,244.168z"/>
				</g>
				<path style="fill:#30252D;" d="M424.935,252.018c0-1.474,0.577-2.668,1.289-2.668c0.712,0,1.289,1.194,1.289,2.668
					c0,1.473-0.577-0.773-1.289-0.773C425.512,251.245,424.935,253.491,424.935,252.018z"/>
			</g>
			<g>
				<g>
					<path style="fill:#FFFFFF;" d="M402.601,260.136c0.032-0.047,0.042-0.086,0.042-0.103c0-0.009-0.002-0.009-0.002-0.009
						c-0.019-0.002,0.097,0.041,0.139,0.06l0.711,0.292l1.441,0.563l2.906,1.113l5.857,2.128c3.916,1.391,7.851,2.727,11.784,4.068
						c3.953,1.284,7.89,2.615,11.858,3.854c3.965,1.249,7.936,2.479,11.937,3.617l-0.906,2.698
						c-3.878-1.509-7.785-2.932-11.698-4.338c-3.909-1.417-7.847-2.746-11.768-4.127l-11.828-3.955l-5.937-1.92l-2.982-0.935
						l-1.496-0.48l-0.754-0.237c-0.08-0.027-0.088-0.023-0.227-0.076c-0.121-0.047-0.243-0.1-0.362-0.158
						c-0.24-0.116-0.47-0.255-0.678-0.401L402.601,260.136z"/>
				</g>
				<g>
					<path style="fill:#FFFFFF;" d="M402.272,261.824c0,0.944-0.765,1.708-1.708,1.708c-0.944,0-1.708-0.765-1.708-1.708
						c0-0.943,0.765-1.708,1.708-1.708C401.507,260.115,402.272,260.88,402.272,261.824z"/>
					<path style="fill:#FFFFFF;" d="M404.175,259.758c0,0.943-0.765,1.708-1.708,1.708c-0.944,0-1.708-0.765-1.708-1.708
						c0-0.944,0.765-1.708,1.708-1.708C403.41,258.049,404.175,258.814,404.175,259.758z"/>
				</g>
				<g>
					<path style="fill:#FFFFFF;" d="M449.9,277.976c0,0.943-0.765,1.708-1.708,1.708c-0.944,0-1.708-0.765-1.708-1.708
						c0-0.944,0.765-1.708,1.708-1.708C449.135,276.268,449.9,277.033,449.9,277.976z"/>
					<path style="fill:#FFFFFF;" d="M451.804,275.91c0,0.944-0.765,1.708-1.708,1.708c-0.944,0-1.708-0.765-1.708-1.708
						s0.765-1.708,1.708-1.708C451.039,274.201,451.804,274.966,451.804,275.91z"/>
				</g>
			</g>
			<g>
				<g>
					<path style="fill:#FFFFFF;" d="M451.283,261.787c-0.208,0.146-0.438,0.285-0.678,0.401c-0.12,0.058-0.241,0.111-0.362,0.158
						c-0.139,0.054-0.147,0.049-0.227,0.076l-0.754,0.237l-1.496,0.48l-2.982,0.935l-5.936,1.92l-11.828,3.955
						c-3.921,1.381-7.859,2.71-11.768,4.127c-3.912,1.407-7.819,2.829-11.698,4.338l-0.906-2.698
						c4.001-1.138,7.973-2.368,11.937-3.617c3.968-1.238,7.905-2.57,11.858-3.854c3.933-1.341,7.869-2.677,11.784-4.068l5.857-2.128
						l2.906-1.113l1.441-0.563l0.712-0.292c0.042-0.018,0.158-0.062,0.139-0.06c0,0-0.003,0.001-0.002,0.009
						c0,0.017,0.01,0.057,0.042,0.103L451.283,261.787z"/>
				</g>
				<g>
					<path style="fill:#FFFFFF;" d="M449.651,261.824c0,0.944,0.765,1.708,1.708,1.708c0.944,0,1.708-0.765,1.708-1.708
						c0-0.943-0.765-1.708-1.708-1.708C450.416,260.115,449.651,260.88,449.651,261.824z"/>
					<path style="fill:#FFFFFF;" d="M447.747,259.758c0,0.943,0.765,1.708,1.708,1.708c0.944,0,1.708-0.765,1.708-1.708
						c0-0.944-0.765-1.708-1.708-1.708C448.512,258.049,447.747,258.814,447.747,259.758z"/>
				</g>
				<g>
					<path style="fill:#FFFFFF;" d="M402.023,277.976c0,0.943,0.765,1.708,1.708,1.708c0.943,0,1.708-0.765,1.708-1.708
						c0-0.944-0.765-1.708-1.708-1.708C402.788,276.268,402.023,277.033,402.023,277.976z"/>
					<path style="fill:#FFFFFF;" d="M400.119,275.91c0,0.944,0.765,1.708,1.708,1.708c0.944,0,1.708-0.765,1.708-1.708
						s-0.765-1.708-1.708-1.708C400.884,274.201,400.119,274.966,400.119,275.91z"/>
				</g>
			</g>
		</g>
		<path style="fill:#A06E33;" d="M379.662,301.399L379.662,301.399c-1.581,0-2.875-1.294-2.875-2.875v-85.375
			c0-1.581,1.294-2.875,2.875-2.875l0,0c1.581,0,2.875,1.294,2.875,2.875v85.375C382.537,300.105,381.243,301.399,379.662,301.399z"
			/>
		<path style="fill:#A06E33;" d="M383.995,213.024h-7.796c-1.112,0-2.021-0.909-2.021-2.021l0,0c0-1.111,0.909-2.021,2.021-2.021
			h7.796c1.112,0,2.021,0.909,2.021,2.021l0,0C386.016,212.115,385.107,213.024,383.995,213.024z"/>
		<path style="opacity:0.2;fill:#3E2C38;" d="M383.995,212.295h-7.796c-0.987,0-1.81-0.718-1.984-1.656
			c-0.022,0.119-0.037,0.24-0.037,0.365c0,1.112,0.909,2.021,2.021,2.021h7.796c1.111,0,2.021-0.909,2.021-2.021
			c0-0.125-0.015-0.246-0.037-0.365C385.806,211.577,384.982,212.295,383.995,212.295z"/>
		<path style="fill:#A06E33;" d="M374.387,204.999c0-2.913,2.362-5.275,5.275-5.275c2.913,0,5.275,2.362,5.275,5.275
			c0,2.913-2.362,5.275-5.275,5.275C376.748,210.274,374.387,207.912,374.387,204.999z"/>
		<path style="opacity:0.2;fill:#3E2C38;" d="M379.662,208.774c-2.657,0-4.833-1.97-5.2-4.525c-0.035,0.247-0.076,0.493-0.076,0.75
			c0,2.913,2.362,5.275,5.275,5.275c2.913,0,5.275-2.362,5.275-5.275c0-0.257-0.04-0.503-0.076-0.75
			C384.495,206.804,382.318,208.774,379.662,208.774z"/>
	</g>
	<g>
		<path style="fill:#EAC14B;" d="M399.395,154.88L399.395,154.88c-2.2,0-4-1.8-4-4v-36.951c0-2.2,1.8-4,4-4l0,0c2.2,0,4,1.8,4,4
			v36.951C403.395,153.08,401.595,154.88,399.395,154.88z"/>
		<ellipse style="fill:#EAC14B;" cx="399.329" cy="156.47" rx="21.167" ry="5.632"/>
		<path style="fill:#EAC14B;" d="M399.372,65.351h-33.377c0,0,8.667,8.766,8.667,23.266s3.086,28.895,24.71,28.895
			c21.623,0,24.71-14.395,24.71-28.895s8.667-23.266,8.667-23.266H399.372z"/>
		<path style="opacity:0.2;fill:#3E2C38;" d="M399.372,113.17c-13.363,0-20.342-5.501-23.728-13.123
			c2.037,9.787,7.938,17.465,23.728,17.465c15.912,0,21.781-7.798,23.774-17.693C419.824,107.561,412.869,113.17,399.372,113.17z"/>
		<path style="fill:#A06E33;" d="M432.748,65.351c0,1.684-14.943,3.05-33.376,3.05c-18.433,0-33.377-1.365-33.377-3.05
			s14.943-3.05,33.377-3.05C417.805,62.301,432.748,63.666,432.748,65.351z"/>
		<path style="fill:#FAE499;" d="M373.371,79.117c0.774,2.802,1.291,5.978,1.291,9.5c0,2.644,0.105,5.283,0.404,7.833h48.612
			c0.299-2.55,0.404-5.19,0.404-7.833c0-3.522,0.517-6.698,1.291-9.5H373.371z"/>
		<g>
			<path style="fill:#1D89A6;" d="M410.747,87.576c0-2.946,2.388-5.333,5.333-5.333s5.333,2.388,5.333,5.333
				c0,2.945-2.388,5.333-5.333,5.333S410.747,90.521,410.747,87.576z"/>
			<path style="opacity:0.2;fill:#3E2C38;" d="M416.08,90.696c-2.566,0-4.707-1.813-5.217-4.227
				c-0.075,0.357-0.116,0.727-0.116,1.107c0,2.945,2.388,5.333,5.333,5.333c2.946,0,5.333-2.388,5.333-5.333
				c0-0.38-0.041-0.749-0.117-1.107C420.787,88.883,418.646,90.696,416.08,90.696z"/>
			<path style="fill:#FEFEFE;" d="M417.183,83.675c0,0.331-0.512,0.599-1.143,0.599c-0.631,0-1.143-0.268-1.143-0.599
				c0-0.331,0.512-0.599,1.143-0.599C416.672,83.077,417.183,83.345,417.183,83.675z"/>
		</g>
		<g>
			<circle style="fill:#1D89A6;" cx="399.372" cy="87.576" r="5.333"/>
			<path style="opacity:0.2;fill:#3E2C38;" d="M399.372,90.696c-2.566,0-4.707-1.813-5.217-4.227
				c-0.075,0.357-0.117,0.727-0.117,1.107c0,2.945,2.388,5.333,5.333,5.333c2.945,0,5.333-2.388,5.333-5.333
				c0-0.38-0.041-0.749-0.116-1.107C404.079,88.883,401.938,90.696,399.372,90.696z"/>
			<path style="fill:#FEFEFE;" d="M400.475,83.675c0,0.331-0.512,0.599-1.143,0.599s-1.143-0.268-1.143-0.599
				c0-0.331,0.512-0.599,1.143-0.599S400.475,83.345,400.475,83.675z"/>
		</g>
		<g>
			<path style="fill:#1D89A6;" d="M377.33,87.576c0-2.946,2.388-5.333,5.333-5.333c2.945,0,5.333,2.388,5.333,5.333
				c0,2.945-2.388,5.333-5.333,5.333C379.718,92.909,377.33,90.521,377.33,87.576z"/>
			<path style="opacity:0.2;fill:#3E2C38;" d="M382.663,90.696c-2.566,0-4.707-1.813-5.217-4.227
				c-0.075,0.357-0.117,0.727-0.117,1.107c0,2.945,2.388,5.333,5.333,5.333c2.945,0,5.333-2.388,5.333-5.333
				c0-0.38-0.041-0.749-0.117-1.107C387.37,88.883,385.229,90.696,382.663,90.696z"/>
			<path style="fill:#FEFEFE;" d="M383.767,83.675c0,0.331-0.512,0.599-1.143,0.599c-0.631,0-1.143-0.268-1.143-0.599
				c0-0.331,0.512-0.599,1.143-0.599C383.255,83.077,383.767,83.345,383.767,83.675z"/>
		</g>
		<circle style="fill:#EAC14B;" cx="399.329" cy="134.76" r="7.744"/>
		<path style="opacity:0.2;fill:#3E2C38;" d="M399.329,140.303c-3.9,0-7.094-2.892-7.633-6.643
			c-0.052,0.363-0.111,0.724-0.111,1.101c0,4.277,3.467,7.744,7.744,7.744c4.277,0,7.744-3.467,7.744-7.744
			c0-0.377-0.059-0.738-0.111-1.101C406.423,137.41,403.228,140.303,399.329,140.303z"/>
	</g>
	<g>
		<path style="fill:#A06E33;" d="M431.132,336.88h-24.76h-24.76c0,0-37.569,52.418,0,109.417h24.76h24.76
			C468.701,389.298,431.132,336.88,431.132,336.88z"/>
		<g style="opacity:0.2;">
			<rect x="412.055" y="336.88" style="fill:#3E2C38;" width="2.211" height="109.417"/>
			<rect x="424.181" y="336.88" style="fill:#3E2C38;" width="2.211" height="109.417"/>
			<rect x="399.929" y="336.88" style="fill:#3E2C38;" width="2.211" height="109.417"/>
			<path style="fill:#3E2C38;" d="M438.518,350.377c-0.798-1.778-1.584-3.4-2.329-4.856v92.304c0.825-1.534,1.604-3.062,2.329-4.585
				V350.377z"/>
			<rect x="387.803" y="336.88" style="fill:#3E2C38;" width="2.211" height="109.417"/>
			<path style="fill:#3E2C38;" d="M375.677,436.162c0.696,1.351,1.435,2.706,2.211,4.065v-97.228
				c-0.686,1.25-1.434,2.682-2.211,4.275V436.162z"/>
		</g>
		<g>
			<path style="fill:#EAC14B;" d="M378.277,342.867h56.518c0.67,0,1.217-0.548,1.217-1.217v-0.226c0-0.67-0.548-1.217-1.217-1.217
				h-56.518c-0.67,0-1.217,0.548-1.217,1.217v0.226C377.059,342.319,377.607,342.867,378.277,342.867z"/>
			<path style="fill:#EAC14B;" d="M437.519,346.428h-62.295c-0.702,0-1.277,0.575-1.277,1.277v0.107
				c0,0.702,0.575,1.277,1.277,1.277h62.295c0.702,0,1.277-0.575,1.277-1.277v-0.107
				C438.796,347.003,438.222,346.428,437.519,346.428z"/>
		</g>
		<g>
			<path style="fill:#EAC14B;" d="M434.466,440.016h-56.518c-0.669,0-1.217,0.548-1.217,1.217v0.226c0,0.67,0.548,1.217,1.217,1.217
				h56.518c0.669,0,1.217-0.548,1.217-1.217v-0.226C435.684,440.563,435.136,440.016,434.466,440.016z"/>
			<path style="fill:#EAC14B;" d="M375.224,436.454h62.295c0.702,0,1.277-0.575,1.277-1.277v-0.107c0-0.702-0.575-1.277-1.277-1.277
				h-62.295c-0.702,0-1.277,0.575-1.277,1.277v0.107C373.947,435.88,374.522,436.454,375.224,436.454z"/>
		</g>
		<path style="fill:#30252D;" d="M441.693,388.614c0,3.934-1.943,7.122-4.339,7.122c-2.396,0-4.339-3.189-4.339-7.122
			s1.943-7.122,4.339-7.122C439.75,381.492,441.693,384.68,441.693,388.614z"/>
	</g>
	<g>
		<path style="fill:#A06E33;" d="M61.369,300.044l-2.131-1.906c-1.415-1.266-1.538-3.46-0.271-4.876l25.83-28.876
			c1.266-1.415,3.46-1.538,4.876-0.271l2.131,1.906c1.416,1.266,1.538,3.46,0.271,4.876l-25.83,28.876
			C64.979,301.188,62.785,301.31,61.369,300.044z"/>
		<path style="fill:#BC8C3F;" d="M89.732,272.216l-5.986-5.355c-1.614-1.444-1.754-3.946-0.31-5.561l19.049-21.294
			c1.444-1.614,3.946-1.754,5.561-0.31l5.986,5.355c1.614,1.444,1.754,3.946,0.31,5.561l-19.049,21.294
			C93.848,273.521,91.346,273.66,89.732,272.216z"/>
		<path style="fill:#A06E33;" d="M101.815,261.338l-8.599-7.692c-2.319-2.074-2.519-5.669-0.445-7.988l27.362-30.589
			c2.074-2.319,5.669-2.519,7.988-0.445l8.599,7.692c2.319,2.074,2.519,5.669,0.445,7.988l-27.362,30.589
			C107.728,263.212,104.133,263.412,101.815,261.338z"/>
		<path style="opacity:0.2;fill:#3E2C38;" d="M136.72,222.317l-8.599-7.692c-2.319-2.074-5.913-1.874-7.988,0.445l-2.421,2.706
			c1.839,2.794,4.388,5.747,7.492,8.523c3.206,2.868,6.534,5.128,9.596,6.648l2.364-2.643
			C139.239,227.985,139.039,224.391,136.72,222.317z"/>
		
			<ellipse transform="matrix(0.6667 -0.7453 0.7453 0.6667 -118.656 171.3862)" style="fill:#A06E33;" cx="132.302" cy="218.365" rx="8.21" ry="20.479"/>
		
			<rect x="113.026" y="215.216" transform="matrix(0.7453 0.6667 -0.6667 0.7453 178.6903 -33.7381)" style="fill:#A06E33;" width="40.958" height="3.609"/>
		<path style="fill:#BC8C3F;" d="M149.738,229.589c-2.695,3.013-11.713-0.658-20.143-8.199c-8.43-7.541-13.079-16.096-10.384-19.108
			c2.695-3.013,11.713,0.658,20.143,8.199C147.784,218.021,152.433,226.577,149.738,229.589z"/>
		<path style="fill:#C7EAFF;" d="M146.266,226.407c-1.678,1.875-8.3-1.312-14.791-7.118c-6.491-5.807-10.393-12.034-8.716-13.909
			c1.677-1.875,8.3,1.312,14.791,7.118C144.041,218.305,147.944,224.532,146.266,226.407z"/>
		<path style="fill:#A06E33;" d="M67.196,303.698c-0.984,1.1-4.582-0.513-8.035-3.602c-3.454-3.089-5.455-6.486-4.471-7.586
			s4.582,0.512,8.035,3.602C66.178,299.201,68.18,302.598,67.196,303.698z"/>
	</g>
	<g>
		
			<ellipse transform="matrix(0.1602 -0.9871 0.9871 0.1602 -305.5813 427.675)" style="fill:#B7883D;" cx="98.545" cy="393.421" rx="46.417" ry="46.417"/>
		
			<ellipse transform="matrix(0.9239 -0.3827 0.3827 0.9239 -143.0546 67.6591)" style="fill:#EAC14B;" cx="98.545" cy="393.421" rx="44.917" ry="44.917"/>
		<g>
			<path style="fill:#FFF4DC;" d="M120.275,354.11l-61.041,61.041c2.465,4.449,5.662,8.434,9.429,11.794l63.406-63.406
				C128.708,359.771,124.724,356.574,120.275,354.11z"/>
			<path style="fill:#FFF4DC;" d="M137.335,370.783c-0.586-1.001-1.207-1.978-1.866-2.928l-62.489,62.49
				c0.95,0.659,1.927,1.28,2.928,1.865L137.335,370.783z"/>
		</g>
		
			<ellipse transform="matrix(0.9239 -0.3827 0.3827 0.9239 -143.0546 67.6591)" style="fill:#E5AE4E;" cx="98.545" cy="393.421" rx="35.222" ry="35.222"/>
		<path style="opacity:0.2;fill:#3E2C38;" d="M98.545,427.408c-19.245,0-34.875-15.438-35.206-34.604
			c-0.003,0.206-0.016,0.41-0.016,0.617c0,19.452,15.769,35.222,35.222,35.222c19.452,0,35.222-15.769,35.222-35.222
			c0-0.207-0.012-0.411-0.016-0.617C133.42,411.97,117.791,427.408,98.545,427.408z"/>
		<g>
			<g>
				<path style="fill:#B7883D;" d="M83.551,408.416L83.551,408.416c-0.48-0.48-0.48-1.266,0-1.746l28.243-28.243
					c0.48-0.48,1.266-0.48,1.746,0l0,0c0.48,0.48,0.48,1.266,0,1.746l-28.243,28.243C84.816,408.896,84.031,408.896,83.551,408.416z
					"/>
				<polygon style="fill:#B7883D;" points="113.54,378.427 110.305,375.192 110.844,381.123 116.775,381.662 				"/>
				<polygon style="fill:#B7883D;" points="83.551,408.416 86.786,411.651 86.247,405.72 80.315,405.181 				"/>
			</g>
			<g>
				<path style="fill:#B7883D;" d="M83.551,378.427L83.551,378.427c0.48-0.48,1.266-0.48,1.746,0l28.243,28.243
					c0.48,0.48,0.48,1.266,0,1.746l0,0c-0.48,0.48-1.266,0.48-1.746,0l-28.243-28.243C83.07,379.693,83.07,378.907,83.551,378.427z"
					/>
				<polygon style="fill:#B7883D;" points="113.54,408.416 116.775,405.181 110.844,405.72 110.305,411.651 				"/>
				<polygon style="fill:#B7883D;" points="83.551,378.427 80.315,381.662 86.247,381.123 86.786,375.192 				"/>
			</g>
		</g>
		
			<ellipse transform="matrix(0.1602 -0.9871 0.9871 0.1602 -305.5813 427.675)" style="fill:none;stroke:#FFF4DC;stroke-width:2;stroke-miterlimit:10;" cx="98.545" cy="393.421" rx="31.351" ry="31.351"/>
	</g>
	<g>
		<g>
			<path style="fill:#FAE499;" d="M219.177,381.263L219.177,381.263c-0.076,0.018-7.457-3.467-11.171-5.484
				c-2.326-1.263-3.536-3.966-3.081-6.885c0.633-4.057,4.117-7.072,9.32-8.064c11.503-2.19,16.613-6.098,16.079-12.298l-2.277,0.196
				c0.258,3.019-0.933,7.325-14.23,9.857c-7.294,1.389-10.542,6.053-11.151,9.957c-0.606,3.886,1.062,7.515,4.248,9.246
				C211.403,380.225,218.835,381.346,219.177,381.263z"/>
		</g>
		<g>
			<polygon style="fill:#ED4B24;" points="223.022,344.808 226.342,349.436 222.967,354.023 228.395,352.296 231.715,356.923 
				231.748,351.228 237.175,349.5 231.769,347.708 231.803,342.012 228.428,346.6 			"/>
			<polygon style="fill:#FFC621;" points="221.354,349.474 226.788,351.18 226.845,356.875 230.147,352.234 235.581,353.939 
				232.187,349.366 235.488,344.724 230.089,346.539 226.696,341.965 226.753,347.66 			"/>
		</g>
		<path style="fill:#7A5934;" d="M218.032,424.893c0-16.05,13.011-29.06,29.06-29.06s29.06,13.011,29.06,29.06
			s-13.011,14.205-29.06,14.205S218.032,440.943,218.032,424.893z"/>
		<path style="fill:#30252D;" d="M280.773,398.44c4.81-6.005,9.781-11.848,14.84-17.603c3.72-4.256,7.526-8.426,11.367-12.56
			l-35.961-35.961c-4.134,3.841-8.304,7.647-12.56,11.367c-5.755,5.059-11.598,10.03-17.603,14.84
			c-6.016,4.798-12.112,9.517-18.568,13.875c-3.281,2.23-6.297,5.164-8.652,8.652c-9.929,14.708-6.056,34.68,8.652,44.609
			c14.708,9.929,34.68,6.056,44.61-8.652C271.257,410.552,275.975,404.456,280.773,398.44z"/>
		<path style="fill:#4C454B;" d="M306.844,368.14c1.848-1.848-4.674-11.365-14.567-21.258c-9.893-9.893-19.41-16.414-21.258-14.566
			c-1.848,1.848,4.674,11.365,14.566,21.258C295.478,363.466,304.996,369.988,306.844,368.14z"/>
		<path style="fill:#30252D;" d="M300.33,361.627c0.826-0.826-3.608-6.599-9.903-12.894c-6.295-6.295-12.068-10.729-12.894-9.903
			s3.608,6.599,9.903,12.894S299.504,362.453,300.33,361.627z"/>
		<path style="fill:#A06E33;" d="M192.843,429.094c0-16.05,13.011-29.06,29.06-29.06s29.06,13.011,29.06,29.06
			c0,16.05-13.011,14.205-29.06,14.205S192.843,445.143,192.843,429.094z"/>
		<path style="opacity:0.2;fill:#3E2C38;" d="M221.904,437.372c-15.018,0-27.374,1.612-28.9-11.331
			c-0.105,1.003-0.16,2.021-0.16,3.053c0,16.05,13.011,14.205,29.06,14.205s29.06,1.844,29.06-14.205
			c0-1.031-0.056-2.049-0.16-3.053C249.278,438.984,236.922,437.372,221.904,437.372z"/>
		<g>
			<path style="fill:#FFFFFF;" d="M233.632,377.192c-0.564,0-1.125-0.237-1.521-0.699c-0.718-0.84-0.62-2.102,0.219-2.82
				l34.667-29.673c0.84-0.718,2.102-0.62,2.82,0.219c0.718,0.84,0.62,2.102-0.219,2.82l-34.667,29.673
				C234.554,377.033,234.091,377.192,233.632,377.192z"/>
		</g>
		<polygon style="fill:#30252D;" points="214.443,386.838 203.026,381.338 210.193,370.755 219.86,379.421 		"/>
		<circle style="fill:#A0A0A0;" cx="221.904" cy="421.698" r="5.193"/>
	</g>
	<g>
		<path style="fill:#A06E33;" d="M65.28,150.102L65.28,150.102c-1.042-1.042-1.042-2.747,0-3.789l69.197-69.197
			c1.042-1.042,2.747-1.042,3.789,0l0,0c1.042,1.042,1.042,2.747,0,3.789l-69.197,69.197
			C68.027,151.144,66.322,151.144,65.28,150.102z"/>
		<path style="fill:#A06E33;" d="M128.747,69.778L128.747,69.778c1.042-1.042,2.747-1.042,3.789,0l13.297,13.297
			c1.042,1.042,1.042,2.747,0,3.789l0,0c-1.042,1.042-2.747,1.042-3.789,0l-13.297-13.297
			C127.705,72.526,127.705,70.82,128.747,69.778z"/>
		<path style="fill:#A06E33;" d="M141.407,60.908L141.407,60.908c1.042,1.042,1.042,2.747,0,3.789l-8.871,8.871
			c-1.042,1.042-2.747,1.042-3.789,0l0,0c-1.042-1.042-1.042-2.747,0-3.789l8.871-8.871
			C138.659,59.865,140.365,59.865,141.407,60.908z"/>
		<path style="fill:#A06E33;" d="M154.704,74.205L154.704,74.205c1.042,1.042,1.042,2.747,0,3.789l-8.871,8.871
			c-1.042,1.042-2.747,1.042-3.789,0l0,0c-1.042-1.042-1.042-2.747,0-3.789l8.871-8.871
			C151.957,73.163,153.662,73.163,154.704,74.205z"/>
		<path style="fill:#A06E33;" d="M137.617,60.908L137.617,60.908c1.042-1.042,2.747-1.042,3.789,0l13.297,13.297
			c1.042,1.042,1.042,2.747,0,3.789v0c-1.042,1.042-2.747,1.042-3.789,0l-13.297-13.297
			C136.575,63.655,136.575,61.95,137.617,60.908z"/>
		<path style="fill:#A0A0A0;" d="M82.724,132.696l-0.121-0.121l-15.256-15.256l-19.889,19.889c0,0-6.123,17.455,3.467,27.045
			l-0.003,0.003c0.021,0.021,0.041,0.038,0.062,0.059c0.021,0.021,0.038,0.041,0.059,0.062l0.003-0.003
			c9.369,9.369,27.045,3.467,27.045,3.467l19.889-19.889L82.724,132.696z"/>
		<path style="opacity:0.2;fill:#3E2C38;" d="M85.571,148.805L65.145,128.38c-0.619-0.619-0.619-1.633,0-2.252l0,0
			c0.619-0.619,1.633-0.619,2.252,0l20.425,20.425c0.619,0.619,0.619,1.633,0,2.252h0C87.203,149.425,86.19,149.425,85.571,148.805z
			"/>
		<path style="fill:#7A5934;" d="M127.357,91.47l-3.215-3.215c-0.947-0.947-0.947-2.498,0-3.445l9.99-9.99
			c0.947-0.947,2.498-0.947,3.445,0l3.215,3.215c0.947,0.947,0.947,2.497,0,3.445l-9.99,9.99
			C129.855,92.417,128.305,92.417,127.357,91.47z"/>
	</g>
	<text transform="matrix(1 0 0 1 199.7596 276.383)" style="fill:#1D89A6; font-family:'Lato-Light'; font-size:19.6647px;">elements</text>
	<text transform="matrix(1 0 0 1 177.2044 251.8811)" style="fill:#1D89A6; font-family:'LobsterTwo'; font-size:64.031px;">Pirate</text>
</g>
</svg>
